<?xml version="1.0" encoding="utf-8"?>
<!-- Generator: Adobe Illustrator 23.0.6, SVG Export Plug-In . SVG Version: 6.00 Build 0)  -->
<svg version="1.1" id="Layer_1" xmlns="http://www.w3.org/2000/svg" xmlns:xlink="http://www.w3.org/1999/xlink" x="0px" y="0px"
	 viewBox="0 0 1000 800" style="enable-background:new 0 0 1000 800;" xml:space="preserve">
<style type="text/css">
	.st0{fill:#E2A93B;}
	.st1{fill:#E5B353;}
</style>
<g>
	<g>
		<path class="st0" d="M2.39,800.14c8.87-7.16,17.71-14.33,26.6-21.46c5.23-4.19,10.55-8.27,15.78-12.46
			c7.54-6.04,15.01-12.17,22.56-18.2c8.8-7.03,17.67-13.96,26.47-20.99c7.17-5.73,14.25-11.55,21.4-17.29
			c5.48-4.39,11.03-8.69,16.52-13.07c9.93-7.91,19.84-15.84,29.75-23.77c5.92-4.73,11.83-9.46,17.73-14.22
			c7.52-6.05,15-12.15,22.53-18.19c5.42-4.34,10.92-8.57,16.34-12.91c7.35-5.89,14.64-11.86,21.99-17.76
			c5.11-4.09,10.3-8.06,15.41-12.15c7.72-6.19,15.37-12.45,23.09-18.64c5.29-4.24,10.67-8.37,15.96-12.61
			c7.48-5.99,14.88-12.07,22.37-18.05c11.91-9.52,23.89-18.96,35.8-28.47c7.3-5.83,14.51-11.77,21.8-17.61
			c8.67-6.93,17.41-13.77,26.08-20.7c7.35-5.88,14.62-11.85,21.97-17.73c5.35-4.29,10.79-8.48,16.15-12.76
			c9.99-7.96,19.97-15.94,29.94-23.92c5.98-4.78,11.96-9.57,17.92-14.37c7.45-6,14.86-12.07,22.34-18.04
			c11.98-9.56,24.02-19.05,36-28.61c7.23-5.77,14.36-11.66,21.58-17.45c5.55-4.45,11.2-8.77,16.75-13.22
			c7.22-5.78,14.37-11.66,21.59-17.44c5.24-4.2,10.56-8.28,15.8-12.48c7.59-6.09,15.12-12.25,22.72-18.34
			c5.42-4.34,10.92-8.57,16.34-12.91c7.35-5.89,14.64-11.87,21.99-17.75c5.55-4.44,11.2-8.78,16.75-13.22
			c7.22-5.78,14.37-11.65,21.59-17.44c5.35-4.29,10.79-8.48,16.14-12.77c7.47-5.99,14.87-12.06,22.34-18.03
			c8.67-6.93,17.41-13.77,26.08-20.7c7.35-5.88,14.62-11.85,21.97-17.73c5.35-4.29,10.79-8.48,16.15-12.76
			c9.99-7.96,19.97-15.94,29.94-23.92c5.98-4.78,11.96-9.57,17.92-14.37c7.45-6,14.86-12.07,22.34-18.04
			c11.98-9.56,24.02-19.05,36-28.61c7.23-5.77,14.36-11.66,21.58-17.45c5.49-4.4,11.06-8.68,16.55-13.08
			c7.29-5.84,14.52-11.76,21.8-17.61c3.24-2.6,6.57-5.09,9.82-7.67c0.79-0.63,1.44-1.44,2.15-2.17c0.16,0.08,0.45,0.15,0.46,0.24
			c0.04,0.64,0.02,1.28,0.02,1.92c0,265.84,0,531.68,0,797.52c-332.09,0-664.17,0-996.26,0c-0.64,0-1.28,0.05-1.92-0.02
			C2.85,800.59,2.63,800.31,2.39,800.14z"/>
		<path class="st1" d="M2.39,800.14c0.24,0.17,0.46,0.45,0.71,0.48c0.63,0.07,1.28,0.02,1.92,0.02c332.09,0,664.17,0,996.26,0
			c-0.08,0.16-0.15,0.45-0.24,0.46c-0.64,0.04-1.28,0.02-1.92,0.02c-332.56,0-665.12,0-997.68,0
			C1.76,800.79,2.07,800.47,2.39,800.14z"/>
	</g>
</g>
</svg>
